<svg width="451" height="75" viewBox="0 0 451 75" fill="none" xmlns="http://www.w3.org/2000/svg">
<circle cx="53" cy="23.5" r="23.5" fill="#008000"/>
<path d="M46 23L51 28L61 18" stroke="white" stroke-width="2" stroke-linecap="round" stroke-linejoin="round"/>
<path d="M1.732 71V61.13H5.008C6.1 61.13 7.024 61.3213 7.78 61.704C8.536 62.0773 9.11 62.6327 9.502 63.37C9.894 64.098 10.09 64.994 10.09 66.058C10.09 67.1127 9.894 68.0087 9.502 68.746C9.11 69.4833 8.536 70.0433 7.78 70.426C7.024 70.8087 6.1 71 5.008 71H1.732ZM2.894 70.006H4.924C6.268 70.006 7.26667 69.6793 7.92 69.026C8.57333 68.3633 8.9 67.374 8.9 66.058C8.9 64.7327 8.57333 63.7433 7.92 63.09C7.26667 62.4367 6.268 62.11 4.924 62.11H2.894V70.006ZM14.739 71.126C14.1137 71.126 13.5677 70.9813 13.101 70.692C12.6343 70.3933 12.2703 69.9733 12.009 69.432C11.757 68.8907 11.631 68.242 11.631 67.486C11.631 66.7207 11.757 66.0673 12.009 65.526C12.2703 64.9847 12.6343 64.5693 13.101 64.28C13.5677 63.9907 14.1137 63.846 14.739 63.846C15.3737 63.846 15.9197 64.0093 16.377 64.336C16.8437 64.6533 17.1517 65.0873 17.301 65.638H17.133L17.287 63.972H18.379C18.351 64.2427 18.323 64.518 18.295 64.798C18.2763 65.0687 18.267 65.3347 18.267 65.596V71H17.133V69.348H17.287C17.1377 69.8987 16.8297 70.3327 16.363 70.65C15.8963 70.9673 15.355 71.126 14.739 71.126ZM14.963 70.202C15.635 70.202 16.167 69.9733 16.559 69.516C16.951 69.0493 17.147 68.3727 17.147 67.486C17.147 66.59 16.951 65.9133 16.559 65.456C16.167 64.9893 15.635 64.756 14.963 64.756C14.3003 64.756 13.7683 64.9893 13.367 65.456C12.975 65.9133 12.779 66.59 12.779 67.486C12.779 68.3727 12.975 69.0493 13.367 69.516C13.7683 69.9733 14.3003 70.202 14.963 70.202ZM22.9515 71.126C22.2608 71.126 21.7335 70.93 21.3695 70.538C21.0055 70.1367 20.8235 69.5347 20.8235 68.732V64.854H19.4515V63.972H20.8235V62.054L21.9575 61.732V63.972H23.9735V64.854H21.9575V68.606C21.9575 69.166 22.0508 69.5673 22.2375 69.81C22.4335 70.0433 22.7228 70.16 23.1055 70.16C23.2828 70.16 23.4415 70.146 23.5815 70.118C23.7215 70.0807 23.8475 70.0387 23.9595 69.992V70.944C23.8288 71 23.6702 71.042 23.4835 71.07C23.3062 71.1073 23.1288 71.126 22.9515 71.126ZM28.4077 71.126C27.3064 71.126 26.4384 70.8087 25.8037 70.174C25.169 69.53 24.8517 68.6387 24.8517 67.5C24.8517 66.7627 24.9917 66.1233 25.2717 65.582C25.5517 65.0313 25.9437 64.6067 26.4477 64.308C26.9517 64 27.5304 63.846 28.1837 63.846C28.8277 63.846 29.369 63.9813 29.8077 64.252C30.2464 64.5227 30.5824 64.91 30.8157 65.414C31.049 65.9087 31.1657 66.4967 31.1657 67.178V67.598H25.7197V66.884H30.4237L30.1857 67.066C30.1857 66.3193 30.0177 65.736 29.6817 65.316C29.3457 64.896 28.8464 64.686 28.1837 64.686C27.4837 64.686 26.9377 64.9333 26.5457 65.428C26.1537 65.9133 25.9577 66.5713 25.9577 67.402V67.528C25.9577 68.4053 26.1724 69.0727 26.6017 69.53C27.0404 69.978 27.6517 70.202 28.4357 70.202C28.8557 70.202 29.2477 70.1413 29.6117 70.02C29.985 69.8893 30.3397 69.6793 30.6757 69.39L31.0677 70.188C30.7597 70.4867 30.3677 70.72 29.8917 70.888C29.425 71.0467 28.9304 71.126 28.4077 71.126ZM35.2389 71.126C34.6789 71.126 34.1563 71.0513 33.6709 70.902C33.1856 70.7433 32.7843 70.524 32.4669 70.244L32.8589 69.446C33.2043 69.7167 33.5776 69.9173 33.9789 70.048C34.3896 70.1787 34.8143 70.244 35.2529 70.244C35.8129 70.244 36.2329 70.146 36.5129 69.95C36.8023 69.7447 36.9469 69.4647 36.9469 69.11C36.9469 68.8393 36.8536 68.6247 36.6669 68.466C36.4896 68.298 36.1956 68.1673 35.7849 68.074L34.4829 67.808C33.8856 67.6773 33.4376 67.458 33.1389 67.15C32.8403 66.8327 32.6909 66.4313 32.6909 65.946C32.6909 65.5353 32.7983 65.176 33.0129 64.868C33.2276 64.5507 33.5403 64.3033 33.9509 64.126C34.3616 63.9393 34.8423 63.846 35.3929 63.846C35.9063 63.846 36.3776 63.9253 36.8069 64.084C37.2456 64.2333 37.6096 64.4527 37.8989 64.742L37.4929 65.526C37.2129 65.2553 36.8909 65.0547 36.5269 64.924C36.1723 64.784 35.8036 64.714 35.4209 64.714C34.8703 64.714 34.4549 64.826 34.1749 65.05C33.9043 65.2647 33.7689 65.5493 33.7689 65.904C33.7689 66.1747 33.8529 66.3987 34.0209 66.576C34.1983 66.744 34.4689 66.87 34.8329 66.954L36.1349 67.22C36.7696 67.36 37.2409 67.5793 37.5489 67.878C37.8663 68.1673 38.0249 68.5593 38.0249 69.054C38.0249 69.474 37.9083 69.8427 37.6749 70.16C37.4416 70.468 37.1149 70.706 36.6949 70.874C36.2843 71.042 35.7989 71.126 35.2389 71.126ZM42.6426 71L46.9966 61.13H48.0046L52.4286 71H51.2246L49.9926 68.186L50.5106 68.48H44.4766L45.0366 68.186L43.8326 71H42.6426ZM47.4866 62.46L45.2186 67.78L44.8826 67.528H50.0906L49.8386 67.78L47.5146 62.46H47.4866ZM53.7915 71V65.596C53.7915 65.3347 53.7775 65.0687 53.7495 64.798C53.7309 64.518 53.7075 64.2427 53.6795 63.972H54.7715L54.9115 65.512H54.7435C54.9489 64.9707 55.2755 64.56 55.7235 64.28C56.1809 63.9907 56.7082 63.846 57.3055 63.846C58.1362 63.846 58.7615 64.07 59.1815 64.518C59.6109 64.9567 59.8255 65.652 59.8255 66.604V71H58.6915V66.674C58.6915 66.0113 58.5562 65.5307 58.2855 65.232C58.0242 64.924 57.6135 64.77 57.0535 64.77C56.4002 64.77 55.8822 64.9707 55.4995 65.372C55.1169 65.7733 54.9255 66.31 54.9255 66.982V71H53.7915ZM64.6547 71.126C64.0387 71.126 63.4973 70.9813 63.0307 70.692C62.564 70.3933 62.2 69.9733 61.9387 69.432C61.6867 68.8907 61.5607 68.242 61.5607 67.486C61.5607 66.7207 61.6867 66.0673 61.9387 65.526C62.2 64.9847 62.564 64.5693 63.0307 64.28C63.4973 63.9907 64.0387 63.846 64.6547 63.846C65.2893 63.846 65.8353 64.0047 66.2927 64.322C66.7593 64.6393 67.072 65.0687 67.2307 65.61H67.0627V60.696H68.1967V71H67.0767V69.32H67.2307C67.0813 69.88 66.7733 70.3233 66.3067 70.65C65.84 70.9673 65.2893 71.126 64.6547 71.126ZM64.8927 70.202C65.5553 70.202 66.0873 69.9733 66.4887 69.516C66.89 69.0493 67.0907 68.3727 67.0907 67.486C67.0907 66.59 66.89 65.9133 66.4887 65.456C66.0873 64.9893 65.5553 64.756 64.8927 64.756C64.23 64.756 63.698 64.9893 63.2967 65.456C62.9047 65.9133 62.7087 66.59 62.7087 67.486C62.7087 68.3727 62.9047 69.0493 63.2967 69.516C63.698 69.9733 64.23 70.202 64.8927 70.202ZM76.5596 71V62.11H73.0736V61.13H81.1936V62.11H77.7216V71H76.5596ZM82.4888 71V63.972H83.6228V71H82.4888ZM82.3488 62.376V61.102H83.7488V62.376H82.3488ZM85.8248 71V65.596C85.8248 65.3347 85.8108 65.0687 85.7828 64.798C85.7641 64.518 85.7408 64.2427 85.7128 63.972H86.8048L86.9448 65.512H86.7767C86.9634 64.98 87.2574 64.5693 87.6588 64.28C88.0694 63.9907 88.5641 63.846 89.1428 63.846C89.7308 63.846 90.2068 63.986 90.5708 64.266C90.9441 64.546 91.1961 64.98 91.3268 65.568H91.1168C91.2941 65.036 91.6068 64.616 92.0548 64.308C92.5028 64 93.0254 63.846 93.6228 63.846C94.3974 63.846 94.9808 64.07 95.3728 64.518C95.7648 64.9567 95.9608 65.652 95.9608 66.604V71H94.8268V66.674C94.8268 66.0113 94.7101 65.5307 94.4768 65.232C94.2434 64.924 93.8701 64.77 93.3568 64.77C92.7688 64.77 92.3021 64.9753 91.9568 65.386C91.6208 65.7873 91.4528 66.3287 91.4528 67.01V71H90.3188V66.674C90.3188 66.0113 90.2021 65.5307 89.9688 65.232C89.7354 64.924 89.3621 64.77 88.8488 64.77C88.2608 64.77 87.7988 64.9753 87.4628 65.386C87.1268 65.7873 86.9588 66.3287 86.9588 67.01V71H85.8248ZM101.238 71.126C100.136 71.126 99.2684 70.8087 98.6338 70.174C97.9991 69.53 97.6818 68.6387 97.6818 67.5C97.6818 66.7627 97.8218 66.1233 98.1018 65.582C98.3818 65.0313 98.7738 64.6067 99.2778 64.308C99.7818 64 100.36 63.846 101.014 63.846C101.658 63.846 102.199 63.9813 102.638 64.252C103.076 64.5227 103.412 64.91 103.646 65.414C103.879 65.9087 103.996 66.4967 103.996 67.178V67.598H98.5498V66.884H103.254L103.016 67.066C103.016 66.3193 102.848 65.736 102.512 65.316C102.176 64.896 101.676 64.686 101.014 64.686C100.314 64.686 99.7678 64.9333 99.3758 65.428C98.9838 65.9133 98.7878 66.5713 98.7878 67.402V67.528C98.7878 68.4053 99.0024 69.0727 99.4318 69.53C99.8704 69.978 100.482 70.202 101.266 70.202C101.686 70.202 102.078 70.1413 102.442 70.02C102.815 69.8893 103.17 69.6793 103.506 69.39L103.898 70.188C103.59 70.4867 103.198 70.72 102.722 70.888C102.255 71.0467 101.76 71.126 101.238 71.126Z" fill="#4E4B66"/>
<path d="M130.5 37.5H200.5" stroke="#A0A3BD" stroke-dasharray="8 8"/>
<circle cx="249" cy="23.5" r="23.5" fill="#008000"/>
<path d="M242 23L247 28L257 18" stroke="white" stroke-width="2" stroke-linecap="round" stroke-linejoin="round"/>
<path d="M238.452 71.126C237.659 71.126 236.949 71.0233 236.324 70.818C235.699 70.6127 235.153 70.3187 234.686 69.936L235.106 69.012C235.433 69.2547 235.759 69.46 236.086 69.628C236.422 69.7867 236.781 69.908 237.164 69.992C237.547 70.0667 237.976 70.104 238.452 70.104C239.283 70.104 239.899 69.95 240.3 69.642C240.701 69.334 240.902 68.9233 240.902 68.41C240.902 67.9713 240.762 67.6353 240.482 67.402C240.202 67.1687 239.712 66.982 239.012 66.842L237.542 66.548C236.637 66.3613 235.96 66.058 235.512 65.638C235.073 65.218 234.854 64.6487 234.854 63.93C234.854 63.342 235.003 62.8287 235.302 62.39C235.61 61.9513 236.039 61.6107 236.59 61.368C237.141 61.1253 237.78 61.004 238.508 61.004C239.208 61.004 239.847 61.1113 240.426 61.326C241.005 61.5313 241.499 61.8347 241.91 62.236L241.504 63.132C241.065 62.74 240.603 62.46 240.118 62.292C239.642 62.1147 239.101 62.026 238.494 62.026C237.729 62.026 237.122 62.194 236.674 62.53C236.235 62.8567 236.016 63.3047 236.016 63.874C236.016 64.3313 236.156 64.6907 236.436 64.952C236.716 65.204 237.178 65.3953 237.822 65.526L239.306 65.82C240.258 66.016 240.958 66.31 241.406 66.702C241.854 67.094 242.078 67.6447 242.078 68.354C242.078 68.8953 241.929 69.376 241.63 69.796C241.341 70.216 240.925 70.5427 240.384 70.776C239.843 71.0093 239.199 71.126 238.452 71.126ZM246.951 71.126C245.849 71.126 244.981 70.8087 244.347 70.174C243.712 69.53 243.395 68.6387 243.395 67.5C243.395 66.7627 243.535 66.1233 243.815 65.582C244.095 65.0313 244.487 64.6067 244.991 64.308C245.495 64 246.073 63.846 246.727 63.846C247.371 63.846 247.912 63.9813 248.351 64.252C248.789 64.5227 249.125 64.91 249.359 65.414C249.592 65.9087 249.709 66.4967 249.709 67.178V67.598H244.263V66.884H248.967L248.729 67.066C248.729 66.3193 248.561 65.736 248.225 65.316C247.889 64.896 247.389 64.686 246.727 64.686C246.027 64.686 245.481 64.9333 245.089 65.428C244.697 65.9133 244.501 66.5713 244.501 67.402V67.528C244.501 68.4053 244.715 69.0727 245.145 69.53C245.583 69.978 246.195 70.202 246.979 70.202C247.399 70.202 247.791 70.1413 248.155 70.02C248.528 69.8893 248.883 69.6793 249.219 69.39L249.611 70.188C249.303 70.4867 248.911 70.72 248.435 70.888C247.968 71.0467 247.473 71.126 246.951 71.126ZM254.118 71.126C253.493 71.126 252.947 70.9813 252.48 70.692C252.013 70.3933 251.649 69.9733 251.388 69.432C251.136 68.8907 251.01 68.242 251.01 67.486C251.01 66.7207 251.136 66.0673 251.388 65.526C251.649 64.9847 252.013 64.5693 252.48 64.28C252.947 63.9907 253.493 63.846 254.118 63.846C254.753 63.846 255.299 64.0093 255.756 64.336C256.223 64.6533 256.531 65.0873 256.68 65.638H256.512L256.666 63.972H257.758C257.73 64.2427 257.702 64.518 257.674 64.798C257.655 65.0687 257.646 65.3347 257.646 65.596V71H256.512V69.348H256.666C256.517 69.8987 256.209 70.3327 255.742 70.65C255.275 70.9673 254.734 71.126 254.118 71.126ZM254.342 70.202C255.014 70.202 255.546 69.9733 255.938 69.516C256.33 69.0493 256.526 68.3727 256.526 67.486C256.526 66.59 256.33 65.9133 255.938 65.456C255.546 64.9893 255.014 64.756 254.342 64.756C253.679 64.756 253.147 64.9893 252.746 65.456C252.354 65.9133 252.158 66.59 252.158 67.486C252.158 68.3727 252.354 69.0493 252.746 69.516C253.147 69.9733 253.679 70.202 254.342 70.202ZM262.33 71.126C261.64 71.126 261.112 70.93 260.748 70.538C260.384 70.1367 260.202 69.5347 260.202 68.732V64.854H258.83V63.972H260.202V62.054L261.336 61.732V63.972H263.352V64.854H261.336V68.606C261.336 69.166 261.43 69.5673 261.616 69.81C261.812 70.0433 262.102 70.16 262.484 70.16C262.662 70.16 262.82 70.146 262.96 70.118C263.1 70.0807 263.226 70.0387 263.338 69.992V70.944C263.208 71 263.049 71.042 262.862 71.07C262.685 71.1073 262.508 71.126 262.33 71.126Z" fill="#4E4B66"/>
<path d="M297.5 37.5H367.5" stroke="#A0A3BD" stroke-dasharray="8 8"/>
<circle cx="421.5" cy="23.5" r="23.5" fill="#1D4ED8"/>
<path d="M421.72 29.144C420.952 29.144 420.216 29.0267 419.512 28.792C418.819 28.5573 418.237 28.2267 417.768 27.8L418.296 26.648C418.819 27.0747 419.357 27.384 419.912 27.576C420.467 27.768 421.053 27.864 421.672 27.864C422.493 27.864 423.117 27.6933 423.544 27.352C423.971 27 424.184 26.4987 424.184 25.848C424.184 25.208 423.965 24.7227 423.528 24.392C423.101 24.0613 422.472 23.896 421.64 23.896H419.912V22.664H421.528C422.232 22.664 422.797 22.4827 423.224 22.12C423.651 21.7573 423.864 21.2613 423.864 20.632C423.864 20.056 423.667 19.6187 423.272 19.32C422.888 19.0107 422.339 18.856 421.624 18.856C421.016 18.856 420.456 18.9627 419.944 19.176C419.432 19.3787 418.947 19.6933 418.488 20.12L417.96 18.984C418.408 18.536 418.963 18.1893 419.624 17.944C420.285 17.6987 420.984 17.576 421.72 17.576C422.84 17.576 423.72 17.832 424.36 18.344C425 18.856 425.32 19.5707 425.32 20.488C425.32 21.1813 425.123 21.7787 424.728 22.28C424.344 22.7707 423.816 23.096 423.144 23.256V23.08C423.933 23.2187 424.547 23.544 424.984 24.056C425.421 24.5573 425.64 25.1867 425.64 25.944C425.64 26.936 425.288 27.72 424.584 28.296C423.891 28.8613 422.936 29.144 421.72 29.144Z" fill="white"/>
<path d="M393.732 71V61.13H397.75C398.786 61.13 399.584 61.382 400.144 61.886C400.704 62.3807 400.984 63.0713 400.984 63.958C400.984 64.826 400.704 65.5167 400.144 66.03C399.584 66.534 398.786 66.786 397.75 66.786H394.894V71H393.732ZM394.894 65.82H397.638C398.357 65.82 398.898 65.6567 399.262 65.33C399.635 65.0033 399.822 64.546 399.822 63.958C399.822 63.3607 399.635 62.8987 399.262 62.572C398.898 62.2453 398.357 62.082 397.638 62.082H394.894V65.82ZM405.057 71.126C404.432 71.126 403.886 70.9813 403.419 70.692C402.953 70.3933 402.589 69.9733 402.327 69.432C402.075 68.8907 401.949 68.242 401.949 67.486C401.949 66.7207 402.075 66.0673 402.327 65.526C402.589 64.9847 402.953 64.5693 403.419 64.28C403.886 63.9907 404.432 63.846 405.057 63.846C405.692 63.846 406.238 64.0093 406.695 64.336C407.162 64.6533 407.47 65.0873 407.619 65.638H407.451L407.605 63.972H408.697C408.669 64.2427 408.641 64.518 408.613 64.798C408.595 65.0687 408.585 65.3347 408.585 65.596V71H407.451V69.348H407.605C407.456 69.8987 407.148 70.3327 406.681 70.65C406.215 70.9673 405.673 71.126 405.057 71.126ZM405.281 70.202C405.953 70.202 406.485 69.9733 406.877 69.516C407.269 69.0493 407.465 68.3727 407.465 67.486C407.465 66.59 407.269 65.9133 406.877 65.456C406.485 64.9893 405.953 64.756 405.281 64.756C404.619 64.756 404.087 64.9893 403.685 65.456C403.293 65.9133 403.097 66.59 403.097 67.486C403.097 68.3727 403.293 69.0493 403.685 69.516C404.087 69.9733 404.619 70.202 405.281 70.202ZM410.43 74.178L410.164 73.24C410.602 73.1373 410.966 73.016 411.256 72.876C411.554 72.7453 411.802 72.568 411.998 72.344C412.194 72.12 412.362 71.84 412.502 71.504L412.866 70.678L412.838 71.154L409.772 63.972H411.004L413.538 70.146H413.174L415.68 63.972H416.87L413.622 71.588C413.435 72.036 413.23 72.4093 413.006 72.708C412.782 73.016 412.539 73.2633 412.278 73.45C412.026 73.646 411.746 73.8 411.438 73.912C411.13 74.024 410.794 74.1127 410.43 74.178ZM418.147 71V65.596C418.147 65.3347 418.133 65.0687 418.105 64.798C418.086 64.518 418.063 64.2427 418.035 63.972H419.127L419.267 65.512H419.099C419.286 64.98 419.58 64.5693 419.981 64.28C420.392 63.9907 420.886 63.846 421.465 63.846C422.053 63.846 422.529 63.986 422.893 64.266C423.266 64.546 423.518 64.98 423.649 65.568H423.439C423.616 65.036 423.929 64.616 424.377 64.308C424.825 64 425.348 63.846 425.945 63.846C426.72 63.846 427.303 64.07 427.695 64.518C428.087 64.9567 428.283 65.652 428.283 66.604V71H427.149V66.674C427.149 66.0113 427.032 65.5307 426.799 65.232C426.566 64.924 426.192 64.77 425.679 64.77C425.091 64.77 424.624 64.9753 424.279 65.386C423.943 65.7873 423.775 66.3287 423.775 67.01V71H422.641V66.674C422.641 66.0113 422.524 65.5307 422.291 65.232C422.058 64.924 421.684 64.77 421.171 64.77C420.583 64.77 420.121 64.9753 419.785 65.386C419.449 65.7873 419.281 66.3287 419.281 67.01V71H418.147ZM433.56 71.126C432.459 71.126 431.591 70.8087 430.956 70.174C430.321 69.53 430.004 68.6387 430.004 67.5C430.004 66.7627 430.144 66.1233 430.424 65.582C430.704 65.0313 431.096 64.6067 431.6 64.308C432.104 64 432.683 63.846 433.336 63.846C433.98 63.846 434.521 63.9813 434.96 64.252C435.399 64.5227 435.735 64.91 435.968 65.414C436.201 65.9087 436.318 66.4967 436.318 67.178V67.598H430.872V66.884H435.576L435.338 67.066C435.338 66.3193 435.17 65.736 434.834 65.316C434.498 64.896 433.999 64.686 433.336 64.686C432.636 64.686 432.09 64.9333 431.698 65.428C431.306 65.9133 431.11 66.5713 431.11 67.402V67.528C431.11 68.4053 431.325 69.0727 431.754 69.53C432.193 69.978 432.804 70.202 433.588 70.202C434.008 70.202 434.4 70.1413 434.764 70.02C435.137 69.8893 435.492 69.6793 435.828 69.39L436.22 70.188C435.912 70.4867 435.52 70.72 435.044 70.888C434.577 71.0467 434.083 71.126 433.56 71.126ZM438.053 71V65.596C438.053 65.3347 438.039 65.0687 438.011 64.798C437.993 64.518 437.969 64.2427 437.941 63.972H439.033L439.173 65.512H439.005C439.211 64.9707 439.537 64.56 439.985 64.28C440.443 63.9907 440.97 63.846 441.567 63.846C442.398 63.846 443.023 64.07 443.443 64.518C443.873 64.9567 444.087 65.652 444.087 66.604V71H442.953V66.674C442.953 66.0113 442.818 65.5307 442.547 65.232C442.286 64.924 441.875 64.77 441.315 64.77C440.662 64.77 440.144 64.9707 439.761 65.372C439.379 65.7733 439.187 66.31 439.187 66.982V71H438.053ZM448.748 71.126C448.058 71.126 447.53 70.93 447.166 70.538C446.802 70.1367 446.62 69.5347 446.62 68.732V64.854H445.248V63.972H446.62V62.054L447.754 61.732V63.972H449.77V64.854H447.754V68.606C447.754 69.166 447.848 69.5673 448.034 69.81C448.23 70.0433 448.52 70.16 448.902 70.16C449.08 70.16 449.238 70.146 449.378 70.118C449.518 70.0807 449.644 70.0387 449.756 69.992V70.944C449.626 71 449.467 71.042 449.28 71.07C449.103 71.1073 448.926 71.126 448.748 71.126Z" fill="#4E4B66"/>
</svg>
