<svg width="121" height="32" viewBox="0 0 121 32" fill="none" xmlns="http://www.w3.org/2000/svg">
<path d="M14.3996 31.0807H8.79643V8.04599H0.352493V2.28231H22.824V8.04599H14.3996V31.0807ZM31.5422 3.72824C31.5422 4.23701 31.4443 4.71229 31.2483 5.1541C31.0656 5.59594 30.8109 5.9842 30.4843 6.3189C30.1577 6.64023 29.7725 6.90129 29.3285 7.10211C28.8973 7.28955 28.4337 7.38327 27.9373 7.38327C27.4411 7.38327 26.9708 7.28955 26.5268 7.10211C26.0958 6.90129 25.717 6.64023 25.3905 6.3189C25.077 5.9842 24.8223 5.59594 24.6264 5.1541C24.4435 4.71229 24.3521 4.23701 24.3521 3.72824C24.3521 3.23288 24.4435 2.76429 24.6264 2.32248C24.8223 1.86726 25.077 1.479 25.3905 1.15768C25.717 0.822969 26.0958 0.561909 26.5268 0.374471C26.9708 0.173651 27.4411 0.0732422 27.9373 0.0732422C28.4337 0.0732422 28.8973 0.173651 29.3285 0.374471C29.7725 0.561909 30.1577 0.822969 30.4843 1.15768C30.8109 1.479 31.0656 1.86726 31.2483 2.32248C31.4443 2.76429 31.5422 3.23288 31.5422 3.72824ZM30.6215 31.0807H25.2337V9.57226H30.6215V31.0807ZM53.0538 13.8498L49.1353 17.8864C48.9395 17.3241 48.6717 16.8221 48.332 16.3802C47.9926 15.9251 47.6074 15.5435 47.1762 15.2355C46.7584 14.9276 46.3013 14.6933 45.8048 14.5326C45.3086 14.372 44.799 14.2917 44.2766 14.2917C43.5453 14.2917 42.853 14.4456 42.2001 14.7536C41.56 15.0615 40.9983 15.4966 40.5152 16.0589C40.0449 16.6078 39.6726 17.2639 39.3984 18.0271C39.1242 18.7902 38.987 19.6336 38.987 20.5574C38.987 21.307 39.1242 22.0101 39.3984 22.6662C39.6726 23.3221 40.0449 23.8979 40.5152 24.3931C40.9983 24.8885 41.56 25.2768 42.2001 25.5579C42.853 25.8392 43.5453 25.9796 44.2766 25.9796C44.799 25.9796 45.3019 25.9061 45.7853 25.7588C46.2686 25.6116 46.7191 25.404 47.1372 25.1361C47.5681 24.8551 47.9468 24.5203 48.2734 24.132C48.6129 23.7304 48.8873 23.2886 49.0962 22.8066L53.0144 26.8433C52.5182 27.5663 51.9434 28.2156 51.2905 28.7911C50.6504 29.3669 49.9517 29.8556 49.1941 30.2573C48.4497 30.6589 47.6596 30.9603 46.8237 31.161C46.0009 31.3751 45.1518 31.4823 44.2766 31.4823C42.8009 31.4823 41.4099 31.201 40.1038 30.6389C38.8107 30.0631 37.6744 29.28 36.6949 28.2891C35.7282 27.2984 34.9642 26.1402 34.4025 24.8148C33.841 23.4893 33.5602 22.0704 33.5602 20.5574C33.5602 18.9106 33.841 17.371 34.4025 15.9384C34.9642 14.5059 35.7282 13.2608 36.6949 12.2031C37.6744 11.132 38.8107 10.2885 40.1038 9.67267C41.4099 9.05681 42.8009 8.74889 44.2766 8.74889C45.1518 8.74889 46.0073 8.86268 46.8432 9.09029C47.6922 9.31789 48.4955 9.6526 49.253 10.0944C50.0236 10.5228 50.7287 11.0517 51.3688 11.6809C52.0218 12.3102 52.5835 13.0332 53.0538 13.8498ZM61.0667 31.0807H55.6789V1.0171H61.0667V19.975L69.0403 9.61243H75.1923L68.2373 18.5692L75.1923 31.0807H69.0403L64.7891 23.2686L61.0667 28.3294V31.0807ZM83.6166 3.72824C83.6166 4.23701 83.5184 4.71229 83.3226 5.1541C83.1397 5.59594 82.885 5.9842 82.5587 6.3189C82.2321 6.64023 81.8466 6.90129 81.4026 7.10211C80.9717 7.28955 80.5081 7.38327 80.0116 7.38327C79.5154 7.38327 79.0452 7.28955 78.6012 7.10211C78.17 6.90129 77.7912 6.64023 77.4649 6.3189C77.1514 5.9842 76.8967 5.59594 76.7007 5.1541C76.518 4.71229 76.4265 4.23701 76.4265 3.72824C76.4265 3.23288 76.518 2.76429 76.7007 2.32248C76.8967 1.86726 77.1514 1.479 77.4649 1.15768C77.7912 0.822969 78.17 0.561909 78.6012 0.374471C79.0452 0.173651 79.5154 0.0732422 80.0116 0.0732422C80.5081 0.0732422 80.9717 0.173651 81.4026 0.374471C81.8466 0.561909 82.2321 0.822969 82.5587 1.15768C82.885 1.479 83.1397 1.86726 83.3226 2.32248C83.5184 2.76429 83.6166 3.23288 83.6166 3.72824ZM82.6956 31.0807H77.3081V9.57226H82.6956V31.0807ZM97.311 31.0807C96.018 31.0807 94.8033 30.8331 93.667 30.3376C92.5307 29.829 91.5316 29.1394 90.6695 28.2691C89.8205 27.3854 89.1478 26.3612 88.6516 25.1965C88.1682 24.0317 87.9267 22.7866 87.9267 21.4611V15.0749H85.321V9.61243H87.9267V1.0171H93.2556V9.61243H101.366V15.0749H93.2556V21.4611C93.2556 22.0369 93.3599 22.579 93.5691 23.0879C93.778 23.5831 94.0653 24.0183 94.4309 24.3931C94.7969 24.7682 95.2278 25.0692 95.724 25.2968C96.2204 25.5112 96.7493 25.6182 97.311 25.6182H101.366V31.0807H97.311ZM120.762 31.0807H103.267L112.103 15.0749H103.267V9.61243H120.762L111.926 25.6182H120.762V31.0807Z" fill="#1D4ED8"/>
</svg>
