<svg width="28" height="33" viewBox="0 0 28 33" fill="none" xmlns="http://www.w3.org/2000/svg">
<path d="M12.3993 8.43367C12.5904 8.34159 12.7995 8.29388 13.0112 8.29401H21.8896C22.9409 8.29401 23.9215 8.36323 24.8176 8.50915C25.0683 8.5496 25.3178 8.59789 25.5656 8.65396C25.9168 8.73237 26.264 8.82834 26.6058 8.94151C27.0463 9.09036 27.4566 9.26373 27.8337 9.46674C28.2781 6.59789 27.8305 4.64693 26.2974 2.87963C24.6091 0.933825 21.5599 0.0996094 17.6579 0.0996094H6.33227C5.53487 0.0996094 4.8565 0.686954 4.73153 1.48331L0.0161434 31.7398C-0.0775831 32.3374 0.379061 32.877 0.975811 32.877H7.96825L11.6111 9.50447C11.6469 9.27474 11.7374 9.05725 11.8747 8.87072C12.012 8.68419 12.192 8.53421 12.3993 8.43367Z" fill="#27346A"/>
</svg>
